# xmcd
#
# Track frame offsets: 
#        150
#        13661
#        34517
#        50219
#        64374
#        82292
#        96162
#        121744
#        135491
#        148944
#        168519
#        181164
#        197966
#        213556
#        226958
#
# Disc length: 3234 seconds
#
# Revision: 3
# Processed by: cddbd v1.5.2PL0 Copyright (c) Steve Scherf et al.
# Submitted via: ExactAudioCopyFreeDBPlugin 1.0
#
DISCID=df0ca00f
DTITLE=Virgis Stakenas and Crazy Crow - SV
DYEAR=2000
DGENRE=Country
TTITLE0=Laiko ratas
TTITLE1=Pelenu spalvos akiu moteris
TTITLE2=Kaitra
TTITLE3=Naslaitis
TTITLE4=Namas
TTITLE5=Prima balerina
TTITLE6=Malda
TTITLE7=Nelaukiamas
TTITLE8=Laukiniai sapnai
TTITLE9=Vairuotojas
TTITLE10=Ziema
TTITLE11=Senjorita
TTITLE12=Stiliaga
TTITLE13=Ateisiu
TTITLE14=Kelio vaikas
EXTD=
EXTT0=
EXTT1=
EXTT2=
EXTT3=
EXTT4=
EXTT5=
EXTT6=
EXTT7=
EXTT8=
EXTT9=
EXTT10=
EXTT11=
EXTT12=
EXTT13=
EXTT14=
PLAYORDER=
